<?xml version="1.0" encoding="utf-8"?>
<!-- Generator: Adobe Illustrator 16.0.0, SVG Export Plug-In . SVG Version: 6.00 Build 0)  -->
<!DOCTYPE svg PUBLIC "-//W3C//DTD SVG 1.1//EN" "http://www.w3.org/Graphics/SVG/1.1/DTD/svg11.dtd">
<svg version="1.1" xmlns="http://www.w3.org/2000/svg" xmlns:xlink="http://www.w3.org/1999/xlink" x="0px" y="0px"
	 width="122.88px" height="122.88px" viewBox="0 0 122.88 122.88" enable-background="new 0 0 122.88 122.88" xml:space="preserve">
<g id="Layer_2">
	<polyline fill-rule="evenodd" clip-rule="evenodd" fill="#C89B3C" points="22.748,40.979 42.76,24.391 69.048,15.795 
		97.703,25.731 109.399,43.313 109.399,66.974 95.395,90.413 62.459,107.085 13.482,94.907 	"/>
</g>
<g id="Layer_6">
	<g>
		<path fill-rule="evenodd" clip-rule="evenodd" fill="#743DE8" d="M50.967,78.94L17.654,91.996l8.459-49.236l28.229,8.298
			L50.967,78.94z"/>
		<path fill-rule="evenodd" clip-rule="evenodd" fill="#DEC9FF" d="M26.113,42.759l18.272-15.146L60.79,46.909l-6.988,4.045
			L26.113,42.759z"/>
		<path fill-rule="evenodd" clip-rule="evenodd" fill="#BEAEFF" d="M44.385,27.614l23.988-7.81l9.723,14.842L60.79,46.909
			L44.385,27.614z"/>
		<path fill-rule="evenodd" clip-rule="evenodd" fill="#5A20E7" d="M68.386,19.766l26.162,9.072l-3.02,11.157l-13.433-5.348
			L68.386,19.766z"/>
		<path fill-rule="evenodd" clip-rule="evenodd" fill="#340087" d="M94.548,28.837l-3.02,11.157l6.004,5.122l7.694-0.226
			L94.548,28.837z"/>
		<path fill-rule="evenodd" clip-rule="evenodd" fill="#8A0A9D" d="M97.533,45.116l7.694-0.226v21.603l-6.147-0.601L97.533,45.116z"
			/>
		<path fill-rule="evenodd" clip-rule="evenodd" fill="#6800AE" d="M50.967,78.94L73.035,88l-10.664,15.114L17.654,91.996
			L50.967,78.94z"/>
		<path fill-rule="evenodd" clip-rule="evenodd" fill="#700985" d="M99.153,65.853l6.074,0.64l-12.785,21.4l-2.025-9.185
			L99.153,65.853z"/>
		<path fill-rule="evenodd" clip-rule="evenodd" fill="#A80CA0" d="M90.649,78.738l1.793,9.155l-30.071,15.222L73.035,88
			L90.649,78.738z"/>
		<g>
			<g>
				<polygon fill-rule="evenodd" clip-rule="evenodd" fill="#1A0B89" points="97.533,45.116 91.662,40.083 78.096,34.646 
					60.44,46.499 53.801,50.955 50.967,78.94 73.035,88 90.649,78.738 99.153,65.853 				"/>
			</g>
		</g>
	</g>
</g>
</svg>
